<svg width="20" height="20" viewBox="0 0 20 20" fill="none" xmlns="http://www.w3.org/2000/svg">
<g id="material-symbols:check-circle-outline-rounded">
<path id="Vector" d="M8.83317 11.8332L7.02067 10.0207C6.86789 9.86793 6.67678 9.79488 6.44734 9.80154C6.21789 9.80821 6.02706 9.88821 5.87484 10.0415C5.72206 10.1943 5.64567 10.3888 5.64567 10.6249C5.64567 10.861 5.72206 11.0554 5.87484 11.2082L8.24984 13.5832C8.40261 13.736 8.59706 13.8124 8.83317 13.8124C9.06928 13.8124 9.26373 13.736 9.4165 13.5832L14.1457 8.85404C14.2984 8.70127 14.3715 8.51016 14.3648 8.28071C14.3582 8.05127 14.2782 7.86043 14.1248 7.70821C13.9721 7.55543 13.7776 7.47904 13.5415 7.47904C13.3054 7.47904 13.1109 7.55543 12.9582 7.70821L8.83317 11.8332ZM9.99984 18.6665C8.84706 18.6665 7.76373 18.4477 6.74984 18.0099C5.73595 17.5721 4.854 16.9785 4.104 16.229C3.354 15.479 2.76039 14.5971 2.32317 13.5832C1.88595 12.5693 1.66706 11.486 1.6665 10.3332C1.6665 9.18043 1.88539 8.0971 2.32317 7.08321C2.76095 6.06932 3.35456 5.18738 4.104 4.43738C4.854 3.68738 5.73595 3.09377 6.74984 2.65654C7.76373 2.21932 8.84706 2.00043 9.99984 1.99988C11.1526 1.99988 12.2359 2.21877 13.2498 2.65654C14.2637 3.09432 15.1457 3.68793 15.8957 4.43738C16.6457 5.18738 17.2396 6.06932 17.6773 7.08321C18.1151 8.0971 18.3337 9.18043 18.3332 10.3332C18.3332 11.486 18.1143 12.5693 17.6765 13.5832C17.2387 14.5971 16.6451 15.479 15.8957 16.229C15.1457 16.979 14.2637 17.5729 13.2498 18.0107C12.2359 18.4485 11.1526 18.6671 9.99984 18.6665ZM9.99984 16.9999C11.8471 16.9999 13.4201 16.3507 14.719 15.0524C16.0179 13.754 16.6671 12.181 16.6665 10.3332C16.6665 8.48599 16.0173 6.91293 14.719 5.61404C13.4207 4.31516 11.8476 3.66599 9.99984 3.66654C8.15262 3.66654 6.57956 4.31571 5.28067 5.61404C3.98178 6.91238 3.33262 8.48543 3.33317 10.3332C3.33317 12.1804 3.98234 13.7535 5.28067 15.0524C6.579 16.3513 8.15206 17.0004 9.99984 16.9999Z" fill="white"/>
</g>
</svg>
